<svg xmlns="http://www.w3.org/2000/svg" xmlns:xlink="http://www.w3.org/1999/xlink" width="176.463" height="158.787" viewBox="0 0 176.463 158.787">
  <defs>
    <linearGradient id="linear-gradient" x1="-1.451" y1="0.5" x2="1.926" y2="0.761" gradientUnits="objectBoundingBox">
      <stop offset="0" stop-color="#f57f5b"/>
      <stop offset="1" stop-color="#ffaf8b"/>
    </linearGradient>
  </defs>
  <g id="paper" transform="translate(0 -25.643)">
    <path id="Path_478" data-name="Path 478" d="M60,85.643H70.34V101.5H60Z" transform="translate(-39.321 -39.321)" fill="#e57536"/>
    <path id="Path_479" data-name="Path 479" d="M422,150.64h10.34v10.34H422Z" transform="translate(-276.556 -81.916)" fill="#f57f5b"/>
    <path id="Path_480" data-name="Path 480" d="M120,85.643h16.367v10.34H120Z" transform="translate(-78.642 -39.321)" fill="#e57536"/>
    <path id="Path_481" data-name="Path 481" d="M176.463,48.044H120.974v-22.4H0v82.028H7.918v72.721h99.614V146.277a43.6,43.6,0,0,0,6.038-2.191l40.343,40.343L175.847,162.5l-16.225-16.225h16.841ZM119.237,127.82c-20.989,20.946-57,6.029-57.028-23.622-.355-18.162,15.634-33.761,33.406-33.39C125.156,70.852,140.257,106.628,119.237,127.82ZM10.34,35.983H110.634V63.117A43.921,43.921,0,0,0,61.627,76.652H20.679v10.34H55.373A43.32,43.32,0,0,0,52.4,97.331H10.34ZM97.192,170.052H18.258V107.671H52.006c1.36,22.966,22.678,41.516,45.187,40.221Zm56.721-.245-31.238-31.238a44.154,44.154,0,0,0,7.314-7.308L161.224,162.5Zm12.21-33.876H149.282L135.521,122.17c7.442-16.1,3.814-36.475-8.973-48.905a43.869,43.869,0,0,0-5.574-4.714V58.384h45.15Z" fill="url(#linear-gradient)"/>
    <path id="Path_482" data-name="Path 482" d="M83,384.64h29.3v10.34H83Z" transform="translate(-54.394 -235.267)" fill="#f57f5b"/>
  </g>
</svg>
