<svg xmlns="http://www.w3.org/2000/svg" xmlns:xlink="http://www.w3.org/1999/xlink" width="191.498" height="158.787" viewBox="0 0 191.498 158.787">
  <defs>
    <linearGradient id="linear-gradient" y1="1.13" x2="1" y2="1.261" gradientUnits="objectBoundingBox">
      <stop offset="0" stop-color="#ffaf8b"/>
      <stop offset="0.475" stop-color="#f57f5b"/>
      <stop offset="1" stop-color="#ffaf8b"/>
    </linearGradient>
  </defs>
  <g id="group" transform="translate(0 -43.729)">
    <g id="Group_132" data-name="Group 132" transform="translate(0 113.278)">
      <g id="Group_131" data-name="Group 131">
        <path id="Path_474" data-name="Path 474" d="M163.446,244.069H144.7a27.977,27.977,0,0,0-7.372.99,28.075,28.075,0,0,0-25.013-15.379H79.182a28.075,28.075,0,0,0-25.013,15.379,27.977,27.977,0,0,0-7.372-.99H28.051A28.083,28.083,0,0,0,0,272.121v29.966a16.85,16.85,0,0,0,16.831,16.831H174.667A16.85,16.85,0,0,0,191.5,302.086V272.121A28.083,28.083,0,0,0,163.446,244.069ZM51.13,257.732V307.7h-34.3a5.617,5.617,0,0,1-5.61-5.61V272.121A16.85,16.85,0,0,1,28.051,255.29H46.8a16.778,16.778,0,0,1,4.4.588C51.158,256.492,51.13,257.109,51.13,257.732ZM129.147,307.7h-66.8V257.732A16.85,16.85,0,0,1,79.182,240.9h33.134a16.85,16.85,0,0,1,16.831,16.831Zm51.13-5.61a5.617,5.617,0,0,1-5.61,5.61h-34.3V257.732c0-.623-.028-1.241-.068-1.854a16.792,16.792,0,0,1,4.4-.588h18.745a16.85,16.85,0,0,1,16.831,16.831Z" transform="translate(0 -229.68)" fill="url(#linear-gradient)"/>
      </g>
    </g>
    <g id="Group_134" data-name="Group 134" transform="translate(12.497 74.688)">
      <g id="Group_133" data-name="Group 133">
        <path id="Path_475" data-name="Path 475" d="M58.341,126.5a24.927,24.927,0,1,0,24.927,24.927A24.955,24.955,0,0,0,58.341,126.5Zm0,38.633a13.706,13.706,0,1,1,13.706-13.706A13.722,13.722,0,0,1,58.341,165.137Z" transform="translate(-33.414 -126.504)" fill="#ffaf8b"/>
      </g>
    </g>
    <g id="Group_136" data-name="Group 136" transform="translate(62.447 43.729)">
      <g id="Group_135" data-name="Group 135">
        <path id="Path_476" data-name="Path 476" d="M200.264,43.729a33.3,33.3,0,1,0,33.3,33.3A33.34,33.34,0,0,0,200.264,43.729Zm0,55.383a22.081,22.081,0,1,1,22.081-22.081A22.106,22.106,0,0,1,200.264,99.112Z" transform="translate(-166.962 -43.729)" fill="#e57536"/>
      </g>
    </g>
    <g id="Group_138" data-name="Group 138" transform="translate(129.147 74.688)">
      <g id="Group_137" data-name="Group 137">
        <path id="Path_477" data-name="Path 477" d="M370.221,126.5a24.927,24.927,0,1,0,24.927,24.927A24.955,24.955,0,0,0,370.221,126.5Zm0,38.633a13.706,13.706,0,1,1,13.706-13.706A13.722,13.722,0,0,1,370.221,165.137Z" transform="translate(-345.294 -126.504)" fill="#ffaf8b"/>
      </g>
    </g>
  </g>
</svg>
