<svg xmlns="http://www.w3.org/2000/svg" width="189.264" height="189.263" viewBox="0 0 189.264 189.263">
  <g id="chip_1_" data-name="chip (1)" transform="translate(0 -0.001)">
    <g id="Group_140" data-name="Group 140" transform="translate(35.563 0.001)">
      <g id="Group_139" data-name="Group 139">
        <path id="Path_483" data-name="Path 483" d="M247.133,91.86H202.495V85.552h12.044a2.772,2.772,0,1,0,0-5.545H202.495V73.7h8.362a11.584,11.584,0,0,0,8.246-3.416L237.336,52.05a8.693,8.693,0,1,0-3.921-3.921L215.182,66.363a6.078,6.078,0,0,1-4.326,1.792h-8.362V62.037a14.642,14.642,0,0,0-14.625-14.625h-6.117V22.869a8.7,8.7,0,1,0-5.545,0V47.412H169.9V35.368a2.772,2.772,0,0,0-5.545,0V47.412h-6.308V2.773a2.772,2.772,0,1,0-5.545,0V47.412h-6.308V35.368a2.772,2.772,0,0,0-5.545,0V47.412h-6.308V39.051a11.585,11.585,0,0,0-3.416-8.246l-18.24-18.24a8.7,8.7,0,1,0-3.921,3.921l18.24,18.24a6.076,6.076,0,0,1,1.792,4.325v8.361H122.68a14.687,14.687,0,0,0-3.655.461,2.772,2.772,0,1,0,1.382,5.37,9.13,9.13,0,0,1,2.273-.286h65.19a9.091,9.091,0,0,1,9.08,9.08v65.19a9.132,9.132,0,0,1-.285,2.271,2.772,2.772,0,1,0,5.37,1.38,14.671,14.671,0,0,0,.46-3.651V121.11h24.543a8.7,8.7,0,1,0,0-5.545H202.494v-6.308h12.044a2.772,2.772,0,0,0,0-5.545H202.494V97.4h44.639a2.772,2.772,0,1,0,0-5.545Zm-8.156-49.832a3.154,3.154,0,1,1-.924,2.23A3.133,3.133,0,0,1,238.977,42.028ZM107.13,10.931a3.153,3.153,0,1,1,0-4.461A3.158,3.158,0,0,1,107.13,10.931Zm71.85,6.849a3.154,3.154,0,1,1,3.154-3.154A3.158,3.158,0,0,1,178.98,17.78Zm56.3,97.4a3.154,3.154,0,1,1-3.154,3.154A3.157,3.157,0,0,1,235.281,115.184Z" transform="translate(-96.206 -0.001)" fill="#ff996b"/>
      </g>
    </g>
    <g id="Group_142" data-name="Group 142" transform="translate(0 56.301)">
      <g id="Group_141" data-name="Group 141">
        <path id="Path_484" data-name="Path 484" d="M151.157,270.419a8.708,8.708,0,0,0-10.016-1.635l-18.24-18.24a6.076,6.076,0,0,1-1.792-4.325v-8.361h6.117a14.679,14.679,0,0,0,3.654-.461,2.772,2.772,0,0,0-1.382-5.37,9.126,9.126,0,0,1-2.272.286H62.036a9.091,9.091,0,0,1-9.08-9.08v-65.19a9.12,9.12,0,0,1,.286-2.272,2.772,2.772,0,1,0-5.37-1.382,14.657,14.657,0,0,0-.461,3.654v6.117H22.868a8.7,8.7,0,1,0,0,5.545H47.411v6.308H35.367a2.772,2.772,0,0,0,0,5.545H47.411v6.308H2.772a2.772,2.772,0,0,0,0,5.545H47.411v6.308H35.367a2.772,2.772,0,0,0,0,5.545H47.411v6.308H39.049a11.585,11.585,0,0,0-8.246,3.416L12.57,233.22a8.691,8.691,0,1,0,3.922,3.921l18.234-18.234a6.078,6.078,0,0,1,4.326-1.792h8.362v6.117a14.642,14.642,0,0,0,14.625,14.625h6.117V262.4a8.7,8.7,0,1,0,5.545,0V237.857h6.308V249.9a2.772,2.772,0,0,0,5.545,0V237.857h6.307V282.5a2.772,2.772,0,0,0,5.545,0V237.858h6.308V249.9a2.772,2.772,0,0,0,5.545,0V237.858h6.308v8.361a11.585,11.585,0,0,0,3.416,8.246l18.24,18.24a8.7,8.7,0,1,0,13.937-2.286ZM14.625,170.086a3.154,3.154,0,1,1,3.154-3.154A3.157,3.157,0,0,1,14.625,170.086Zm-3.7,73.156a3.154,3.154,0,1,1,.924-2.23A3.133,3.133,0,0,1,10.929,243.242Zm63.151,27.4a3.154,3.154,0,1,1-3.154-3.154A3.157,3.157,0,0,1,74.08,270.644Zm73.156,8.156a3.152,3.152,0,1,1,0-4.46A3.158,3.158,0,0,1,147.236,278.8Z" transform="translate(0 -152.306)" fill="#ff996b"/>
      </g>
    </g>
    <g id="Group_144" data-name="Group 144" transform="translate(65.191 62.228)">
      <g id="Group_143" data-name="Group 143">
        <path id="Path_485" data-name="Path 485" d="M235.238,193.337c0-5.929-4.337-10.952-10.274-12.584a9.464,9.464,0,0,0,.273-2.232c0-5.614-4.983-10.181-11.106-10.181A11.533,11.533,0,0,0,205.8,171.8a11.533,11.533,0,0,0-8.334-3.462c-6.124,0-11.106,4.567-11.106,10.181a9.464,9.464,0,0,0,.273,2.232c-5.937,1.632-10.274,6.654-10.274,12.584a12.177,12.177,0,0,0,2.92,7.89,13.709,13.709,0,0,0-2.92,8.408,14.278,14.278,0,0,0,6.667,11.846v.007c0,6.431,5.73,11.662,12.773,11.662a13.228,13.228,0,0,0,10-4.42,13.228,13.228,0,0,0,10,4.42c6.778,0,12.338-4.846,12.746-10.943a12.959,12.959,0,0,0,6.694-11.091,12.5,12.5,0,0,0-3.855-8.889A12.5,12.5,0,0,0,235.238,193.337Zm-9.812,11.341a7.4,7.4,0,0,1,4.266,6.438,7.092,7.092,0,0,1-2.442,5.212,12.446,12.446,0,0,0-7.288-5.87,2.772,2.772,0,0,0-1.662,5.29,6.289,6.289,0,0,1,4.726,5.739c0,3.373-3.243,6.117-7.229,6.117s-7.228-2.744-7.228-6.117V203.708c0-3.373,3.243-6.117,7.228-6.117a2.772,2.772,0,0,0,0-5.545,13.554,13.554,0,0,0-7.228,2.054v-3.541a2.772,2.772,0,0,0-5.545,0V205.95a13.207,13.207,0,0,0-3.063-1.418,2.772,2.772,0,0,0-1.662,5.29,6.289,6.289,0,0,1,4.725,5.738v5.926c0,3.373-3.243,6.117-7.228,6.117s-7.229-2.744-7.229-6.117a5.589,5.589,0,0,1,1.726-3.957,2.772,2.772,0,0,0-3.909-3.933,11.792,11.792,0,0,0-1.711,2.149,8.457,8.457,0,0,1-2.773-6.112c0-4.108,3.224-7.716,7.84-8.775a2.772,2.772,0,1,0-1.24-5.4,16.888,16.888,0,0,0-5.086,2.072,6.69,6.69,0,0,1-1.513-4.19c0-4.17,3.954-7.565,8.827-7.6.025,0,.05,0,.074,0a2.77,2.77,0,0,0,2.352-4.231c-.021-.034-.04-.069-.062-.1-.011-.017-.025-.033-.037-.049-.043-.06-.087-.119-.135-.176l0-.005a4.115,4.115,0,0,1-1.014-2.659c0-2.556,2.5-4.636,5.561-4.636s5.561,2.08,5.561,4.636a2.772,2.772,0,1,0,5.545,0c0-2.556,2.5-4.636,5.561-4.636s5.561,2.08,5.561,4.636a3.9,3.9,0,0,1-.416,1.745,15.4,15.4,0,0,0-4.55,1.141,2.772,2.772,0,1,0,2.154,5.109,10.009,10.009,0,0,1,3.833-.776c.027,0,.053,0,.079,0s.049,0,.074,0c4.873.032,8.826,3.427,8.826,7.6a7.4,7.4,0,0,1-4.266,6.438,2.772,2.772,0,0,0,0,4.9Z" transform="translate(-176.357 -168.34)" fill="#f57f5b"/>
      </g>
    </g>
  </g>
</svg>
